<svg width="100" height="100" viewBox="0 0 100 100" fill="none" xmlns="http://www.w3.org/2000/svg">
<g filter="url(#filter0_d_1_2)">
<path d="M50 85H91.5C93.9853 85 96 82.9853 96 80.5C96 78.0147 93.9853 76 91.5 76H50H8.5C6.01472 76 4 78.0147 4 80.5C4 82.9853 6.01472 85 8.5 85H50Z" fill="#F5F5F5"/>
<path d="M91.5 84.5H50H8.5C6.29086 84.5 4.5 82.7091 4.5 80.5C4.5 78.2909 6.29086 76.5 8.5 76.5H50H91.5C93.7091 76.5 95.5 78.2909 95.5 80.5C95.5 82.7091 93.7091 84.5 91.5 84.5Z" stroke="#F5F5F5"/>
</g>
<g filter="url(#filter1_d_1_2)">
<path d="M50 23H91.5C93.9853 23 96 20.9853 96 18.5C96 16.0147 93.9853 14 91.5 14H50H8.5C6.01472 14 4 16.0147 4 18.5C4 20.9853 6.01472 23 8.5 23H50Z" fill="#F5F5F5"/>
<path d="M91.5 22.5H50H8.5C6.29086 22.5 4.5 20.7091 4.5 18.5C4.5 16.2909 6.29086 14.5 8.5 14.5H50H91.5C93.7091 14.5 95.5 16.2909 95.5 18.5C95.5 20.7091 93.7091 22.5 91.5 22.5Z" stroke="#F5F5F5"/>
</g>
<g filter="url(#filter2_d_1_2)">
<path d="M50 54H91.5C93.9853 54 96 51.9853 96 49.5C96 47.0147 93.9853 45 91.5 45H50H8.5C6.01472 45 4 47.0147 4 49.5C4 51.9853 6.01472 54 8.5 54H50Z" fill="#F5F5F5"/>
<path d="M91.5 53.5H50H8.5C6.29086 53.5 4.5 51.7091 4.5 49.5C4.5 47.2909 6.29086 45.5 8.5 45.5H50H91.5C93.7091 45.5 95.5 47.2909 95.5 49.5C95.5 51.7091 93.7091 53.5 91.5 53.5Z" stroke="#F5F5F5"/>
</g>
<defs>
<filter id="filter0_d_1_2" x="0" y="76" width="100" height="17" filterUnits="userSpaceOnUse" color-interpolation-filters="sRGB">
<feFlood flood-opacity="0" result="BackgroundImageFix"/>
<feColorMatrix in="SourceAlpha" type="matrix" values="0 0 0 0 0 0 0 0 0 0 0 0 0 0 0 0 0 0 127 0" result="hardAlpha"/>
<feOffset dy="4"/>
<feGaussianBlur stdDeviation="2"/>
<feComposite in2="hardAlpha" operator="out"/>
<feColorMatrix type="matrix" values="0 0 0 0 0 0 0 0 0 0 0 0 0 0 0 0 0 0 0.25 0"/>
<feBlend mode="normal" in2="BackgroundImageFix" result="effect1_dropShadow_1_2"/>
<feBlend mode="normal" in="SourceGraphic" in2="effect1_dropShadow_1_2" result="shape"/>
</filter>
<filter id="filter1_d_1_2" x="0" y="14" width="100" height="17" filterUnits="userSpaceOnUse" color-interpolation-filters="sRGB">
<feFlood flood-opacity="0" result="BackgroundImageFix"/>
<feColorMatrix in="SourceAlpha" type="matrix" values="0 0 0 0 0 0 0 0 0 0 0 0 0 0 0 0 0 0 127 0" result="hardAlpha"/>
<feOffset dy="4"/>
<feGaussianBlur stdDeviation="2"/>
<feComposite in2="hardAlpha" operator="out"/>
<feColorMatrix type="matrix" values="0 0 0 0 0 0 0 0 0 0 0 0 0 0 0 0 0 0 0.25 0"/>
<feBlend mode="normal" in2="BackgroundImageFix" result="effect1_dropShadow_1_2"/>
<feBlend mode="normal" in="SourceGraphic" in2="effect1_dropShadow_1_2" result="shape"/>
</filter>
<filter id="filter2_d_1_2" x="0" y="45" width="100" height="17" filterUnits="userSpaceOnUse" color-interpolation-filters="sRGB">
<feFlood flood-opacity="0" result="BackgroundImageFix"/>
<feColorMatrix in="SourceAlpha" type="matrix" values="0 0 0 0 0 0 0 0 0 0 0 0 0 0 0 0 0 0 127 0" result="hardAlpha"/>
<feOffset dy="4"/>
<feGaussianBlur stdDeviation="2"/>
<feComposite in2="hardAlpha" operator="out"/>
<feColorMatrix type="matrix" values="0 0 0 0 0 0 0 0 0 0 0 0 0 0 0 0 0 0 0.25 0"/>
<feBlend mode="normal" in2="BackgroundImageFix" result="effect1_dropShadow_1_2"/>
<feBlend mode="normal" in="SourceGraphic" in2="effect1_dropShadow_1_2" result="shape"/>
</filter>
</defs>
</svg>
