<svg width="64" height="62" viewBox="0 0 64 62" fill="none" xmlns="http://www.w3.org/2000/svg">
<g filter="url(#filter0_d_20_9)">
<mask id="path-1-inside-1_20_9" fill="white">
<path fill-rule="evenodd" clip-rule="evenodd" d="M37.2039 29.547L59.2656 51.6087C60.8277 53.1708 60.8277 55.7035 59.2656 57.2656C57.7035 58.8277 55.1708 58.8277 53.6087 57.2656L31.547 35.2039L9.48528 57.2656C7.92318 58.8277 5.39052 58.8277 3.82842 57.2656C2.26632 55.7035 2.26633 53.1708 3.82843 51.6087L25.8902 29.547L3.82843 7.48528C2.26633 5.92319 2.26633 3.39052 3.82842 1.82843C5.39052 0.266328 7.92318 0.266328 9.48528 1.82843L31.547 23.8902L53.6087 1.82843C55.1708 0.266328 57.7035 0.266328 59.2656 1.82843C60.8277 3.39052 60.8277 5.92319 59.2656 7.48528L37.2039 29.547Z"/>
</mask>
<path fill-rule="evenodd" clip-rule="evenodd" d="M37.2039 29.547L59.2656 51.6087C60.8277 53.1708 60.8277 55.7035 59.2656 57.2656C57.7035 58.8277 55.1708 58.8277 53.6087 57.2656L31.547 35.2039L9.48528 57.2656C7.92318 58.8277 5.39052 58.8277 3.82842 57.2656C2.26632 55.7035 2.26633 53.1708 3.82843 51.6087L25.8902 29.547L3.82843 7.48528C2.26633 5.92319 2.26633 3.39052 3.82842 1.82843C5.39052 0.266328 7.92318 0.266328 9.48528 1.82843L31.547 23.8902L53.6087 1.82843C55.1708 0.266328 57.7035 0.266328 59.2656 1.82843C60.8277 3.39052 60.8277 5.92319 59.2656 7.48528L37.2039 29.547Z" fill="#F5F5F5"/>
<path d="M37.2039 29.547L36.4968 28.8399L35.7897 29.547L36.4968 30.2541L37.2039 29.547ZM53.6087 57.2656L52.9016 57.9727L52.9016 57.9727L53.6087 57.2656ZM31.547 35.2039L32.2541 34.4968L31.547 33.7897L30.8399 34.4968L31.547 35.2039ZM9.48528 57.2656L10.1924 57.9727L10.1924 57.9727L9.48528 57.2656ZM3.82842 57.2656L4.53553 56.5585L4.53553 56.5585L3.82842 57.2656ZM3.82843 51.6087L3.12132 50.9016L3.82843 51.6087ZM25.8902 29.547L26.5973 30.2541L27.3044 29.547L26.5973 28.8399L25.8902 29.547ZM3.82843 7.48528L3.12132 8.19239L3.12132 8.19239L3.82843 7.48528ZM3.82842 1.82843L4.53553 2.53553L3.82842 1.82843ZM9.48528 1.82843L10.1924 1.12132L10.1924 1.12132L9.48528 1.82843ZM31.547 23.8902L30.8399 24.5973L31.547 25.3044L32.2541 24.5973L31.547 23.8902ZM53.6087 1.82843L54.3159 2.53553L54.3159 2.53553L53.6087 1.82843ZM59.2656 1.82843L58.5585 2.53553L58.5585 2.53553L59.2656 1.82843ZM59.2656 7.48528L58.5585 6.77818L58.5585 6.77818L59.2656 7.48528ZM59.9727 50.9016L37.911 28.8399L36.4968 30.2541L58.5585 52.3158L59.9727 50.9016ZM59.9727 57.9727C61.9253 56.0201 61.9253 52.8543 59.9727 50.9016L58.5585 52.3158C59.7301 53.4874 59.7301 55.3869 58.5585 56.5585L59.9727 57.9727ZM52.9016 57.9727C54.8543 59.9253 58.0201 59.9253 59.9727 57.9727L58.5585 56.5585C57.3869 57.7301 55.4874 57.7301 54.3159 56.5585L52.9016 57.9727ZM30.8399 35.911L52.9016 57.9727L54.3159 56.5585L32.2541 34.4968L30.8399 35.911ZM30.8399 34.4968L8.77817 56.5585L10.1924 57.9727L32.2541 35.911L30.8399 34.4968ZM8.77817 56.5585C7.6066 57.7301 5.7071 57.7301 4.53553 56.5585L3.12131 57.9727C5.07394 59.9253 8.23976 59.9253 10.1924 57.9727L8.77817 56.5585ZM4.53553 56.5585C3.36396 55.3869 3.36396 53.4874 4.53553 52.3158L3.12132 50.9016C1.1687 52.8543 1.16869 56.0201 3.12132 57.9727L4.53553 56.5585ZM4.53553 52.3158L26.5973 30.2541L25.1831 28.8399L3.12132 50.9016L4.53553 52.3158ZM3.12132 8.19239L25.1831 30.2541L26.5973 28.8399L4.53553 6.77818L3.12132 8.19239ZM3.12132 1.12132C1.16869 3.07394 1.1687 6.23977 3.12132 8.19239L4.53553 6.77818C3.36396 5.6066 3.36396 3.7071 4.53553 2.53553L3.12132 1.12132ZM10.1924 1.12132C8.23976 -0.831303 5.07394 -0.831303 3.12132 1.12132L4.53553 2.53553C5.7071 1.36396 7.6066 1.36396 8.77817 2.53553L10.1924 1.12132ZM32.2541 23.1831L10.1924 1.12132L8.77817 2.53553L30.8399 24.5973L32.2541 23.1831ZM32.2541 24.5973L54.3159 2.53553L52.9016 1.12132L30.8399 23.1831L32.2541 24.5973ZM54.3159 2.53553C55.4874 1.36396 57.3869 1.36396 58.5585 2.53553L59.9727 1.12132C58.0201 -0.831303 54.8543 -0.831303 52.9016 1.12132L54.3159 2.53553ZM58.5585 2.53553C59.7301 3.7071 59.7301 5.6066 58.5585 6.77818L59.9727 8.19239C61.9253 6.23977 61.9253 3.07394 59.9727 1.12132L58.5585 2.53553ZM58.5585 6.77818L36.4968 28.8399L37.911 30.2541L59.9727 8.19239L58.5585 6.77818Z" fill="#F5F5F5" mask="url(#path-1-inside-1_20_9)"/>
</g>
<defs>
<filter id="filter0_d_20_9" x="-1.34315" y="0.656853" width="65.7803" height="65.7803" filterUnits="userSpaceOnUse" color-interpolation-filters="sRGB">
<feFlood flood-opacity="0" result="BackgroundImageFix"/>
<feColorMatrix in="SourceAlpha" type="matrix" values="0 0 0 0 0 0 0 0 0 0 0 0 0 0 0 0 0 0 127 0" result="hardAlpha"/>
<feOffset dy="4"/>
<feGaussianBlur stdDeviation="2"/>
<feComposite in2="hardAlpha" operator="out"/>
<feColorMatrix type="matrix" values="0 0 0 0 0 0 0 0 0 0 0 0 0 0 0 0 0 0 0.25 0"/>
<feBlend mode="normal" in2="BackgroundImageFix" result="effect1_dropShadow_20_9"/>
<feBlend mode="normal" in="SourceGraphic" in2="effect1_dropShadow_20_9" result="shape"/>
</filter>
</defs>
</svg>
